<svg version="1.1" xmlns="http://www.w3.org/2000/svg" xmlns:xlink="http://www.w3.org/1999/xlink" width="16.75" height="11.375" viewBox="0,0,16.75,11.375"><g transform="translate(-231.625,-174)"><g data-paper-data="{&quot;isPaintingLayer&quot;:true}" fill-rule="evenodd" stroke-miterlimit="10" stroke-dasharray="" stroke-dashoffset="0" style="mix-blend-mode: normal"><path d="M232,185c0,-4.41815 3.58151,-8 8.00074,-8c4.41774,0 7.99926,3.58185 7.99926,8" fill-opacity="0.5451" fill="#ff794d" stroke="#ff794d" stroke-width="0.75" stroke-linecap="round" stroke-linejoin="round"/><path d="M233,177h14" fill="none" stroke="#ff794d" stroke-width="0.75" stroke-linecap="round" stroke-linejoin="round"/><path d="M237,177c0,-1.65685 1.34315,-3 3,-3c1.65685,0 3,1.34315 3,3c0,1.65685 -1.34315,3 -3,3c-1.65685,0 -3,-1.34315 -3,-3z" fill-opacity="0.5451" fill="#ff794d" stroke="none" stroke-width="1" stroke-linecap="butt" stroke-linejoin="miter"/><path d="M238,177c0,-1.10457 0.89543,-2 2,-2c1.10457,0 2,0.89543 2,2c0,1.10457 -0.89543,2 -2,2c-1.10457,0 -2,-0.89543 -2,-2z" fill="#ff794d" stroke="none" stroke-width="1" stroke-linecap="butt" stroke-linejoin="miter"/><path d="M232,177c0,-0.55228 0.44772,-1 1,-1c0.55228,0 1,0.44772 1,1c0,0.55228 -0.44772,1 -1,1c-0.55228,0 -1,-0.44772 -1,-1z" fill="#ff794d" stroke="none" stroke-width="1" stroke-linecap="butt" stroke-linejoin="miter"/><path d="M246,177c0,-0.55228 0.44772,-1 1,-1c0.55228,0 1,0.44772 1,1c0,0.55228 -0.44772,1 -1,1c-0.55228,0 -1,-0.44772 -1,-1z" fill="#ff794d" stroke="none" stroke-width="1" stroke-linecap="butt" stroke-linejoin="miter"/></g></g></svg>