<svg version="1.1" xmlns="http://www.w3.org/2000/svg" xmlns:xlink="http://www.w3.org/1999/xlink" width="13.99683" height="16" viewBox="0,0,13.99683,16"><g transform="translate(-233.00317,-172)"><g data-paper-data="{&quot;isPaintingLayer&quot;:true}" fill-rule="evenodd" stroke-width="1" stroke-miterlimit="10" stroke-dashoffset="0" style="mix-blend-mode: normal"><path d="M246,187.5h-12.49683v-12.5" fill="none" stroke-opacity="0.5" stroke="#575e75" stroke-linecap="round" stroke-linejoin="round" stroke-dasharray="1,2"/><path d="M235,173.00685c0,-0.55607 0.45304,-1.00685 0.99703,-1.00685h7.00297v2.34995c0,0.9113 0.73366,1.65005 1.65005,1.65005h2.34995v9.0046c0,0.54974 -0.45576,0.9954 -1.00247,0.9954h-9.99505c-0.55365,0 -1.00247,-0.44995 -1.00247,-1.00685z" fill="#ff794d" stroke="none" stroke-linecap="butt" stroke-linejoin="miter" stroke-dasharray=""/><path d="M244,172l3,3h-2.00104c-0.55171,0 -0.99896,-0.44266 -0.99896,-0.99896z" fill="#ff794d" stroke="none" stroke-linecap="butt" stroke-linejoin="miter" stroke-dasharray=""/><path d="M239.27105,182.43868c0,0.39916 -0.32271,0.72286 -0.71508,0.72286c-0.39781,0 -0.72052,-0.3237 -0.72052,-0.72286c0,-0.39533 0.32271,-0.71849 0.72052,-0.71849c0.39237,0 0.71508,0.32316 0.71508,0.71849zM240.31701,181.79182c0.09796,-0.09788 0.09796,-0.25754 0,-0.35651l-0.76242,-0.76606c-0.0985,-0.09897 -0.25741,-0.09897 -0.35536,0l-0.26067,0.26137c-0.12081,-0.03499 -0.25142,-0.05085 -0.38257,-0.05085c-0.86092,0 -1.55587,0.69881 -1.55587,1.56384c0,0.97712 0.89739,1.74537 1.91613,1.51791c0.76841,-0.17169 1.25765,-0.88308 1.18364,-1.67046c-0.00762,-0.08038 -0.02177,-0.15912 -0.04354,-0.23731zM239.27105,177.55809c0,0.39971 -0.32271,0.72341 -0.71508,0.72341c-0.39781,0 -0.72052,-0.3237 -0.72052,-0.72341c0,-0.39479 0.32271,-0.71794 0.72052,-0.71794c0.39237,0 0.71508,0.32316 0.71508,0.71794M245.0011,183.08532l-0.03265,0.03226c-0.50502,0.50743 -1.32458,0.50743 -1.83014,0l-3.19881,-3.21407c-0.0849,-0.08585 -0.0849,-0.22419 0,-0.30949l0.63944,-0.64303c0.0849,-0.0853 0.22258,-0.0853 0.30747,0zM245.0011,176.91467l-2.79882,2.81217l-0.94691,-0.95252l1.88293,-1.89191c0.50556,-0.50743 1.32513,-0.50743 1.83014,0zM240.31701,178.20932c0.09796,0.09842 0.09796,0.25863 0,0.35706l-0.76242,0.76606c-0.0985,0.09897 -0.25741,0.09897 -0.35536,0l-0.26067,-0.26137c-0.12081,0.03499 -0.25142,0.05031 -0.38257,0.05031c-0.86092,0 -1.55587,-0.69826 -1.55587,-1.56329c0,-0.97712 0.89739,-1.74537 1.91613,-1.51736c0.76841,0.17115 1.25765,0.88253 1.18364,1.66992c-0.00762,0.08093 -0.02177,0.15857 -0.04354,0.23731zM241.19649,180.02239c0,0.11483 -0.09251,0.20833 -0.20734,0.20833c-0.11428,0 -0.20734,-0.0935 -0.20734,-0.20833c0,-0.11537 0.09306,-0.20833 0.20734,-0.20833c0.11483,0 0.20734,0.09296 0.20734,0.20833z" fill="#ffffff" stroke="none" stroke-linecap="butt" stroke-linejoin="miter" stroke-dasharray=""/></g></g></svg>