<svg version="1.1" xmlns="http://www.w3.org/2000/svg" xmlns:xlink="http://www.w3.org/1999/xlink" width="14.5" height="16" viewBox="0,0,14.5,16"><g transform="translate(-232.75,-172)"><g data-paper-data="{&quot;isPaintingLayer&quot;:true}" fill-rule="evenodd" stroke="none" stroke-width="1" stroke-linecap="butt" stroke-linejoin="miter" stroke-miterlimit="10" stroke-dasharray="" stroke-dashoffset="0" style="mix-blend-mode: normal"><path d="M246.25,179c0.55228,0 1,0.44772 1,1c0,0.55228 -0.44772,1 -1,1c-0.55228,0 -1,-0.44772 -1,-1c0,-0.55228 0.44772,-1 1,-1z" fill="#575e75" opacity="0.5"/><path d="M233.75,179c0.55228,0 1,0.44772 1,1c0,0.55228 -0.44772,1 -1,1c-0.55228,0 -1,-0.44772 -1,-1c0,-0.55228 0.44772,-1 1,-1z" fill="#575e75" opacity="0.5"/><path d="M243.125,179c0.55228,0 1,0.44772 1,1c0,0.55228 -0.44772,1 -1,1c-0.55228,0 -1,-0.44772 -1,-1c0,-0.55228 0.44772,-1 1,-1z" fill="#575e75" opacity="0.5"/><path d="M240,179c0.55228,0 1,0.44772 1,1c0,0.55228 -0.44772,1 -1,1c-0.55228,0 -1,-0.44772 -1,-1c0,-0.55228 0.44772,-1 1,-1z" fill="#575e75" opacity="0.5"/><path d="M236.875,179c0.55228,0 1,0.44772 1,1c0,0.55228 -0.44772,1 -1,1c-0.55228,0 -1,-0.44772 -1,-1c0,-0.55228 0.44772,-1 1,-1z" fill="#575e75" opacity="0.5"/><path d="M243.91575,188h-7.83149c-0.51852,0 -0.77995,-0.74255 -0.41249,-1.17642l3.9172,-4.62165c0.22658,-0.26924 0.59695,-0.26924 0.82353,0l3.91575,4.62165c0.36746,0.43387 0.10603,1.17642 -0.41249,1.17642" fill-opacity="0.5098" fill="#ff794d" opacity="0.5"/><path d="M236.08425,172h7.83149c0.51852,0 0.77995,0.74255 0.41249,1.17471l-3.9172,4.62337c-0.22658,0.26924 -0.59695,0.26924 -0.82353,0l-3.91575,-4.62337c-0.36746,-0.43215 -0.10603,-1.17471 0.41249,-1.17471" fill="#ff794d"/></g></g></svg>