<svg version="1.1" xmlns="http://www.w3.org/2000/svg" xmlns:xlink="http://www.w3.org/1999/xlink" width="16.75" height="16.75" viewBox="0,0,16.75,16.75"><g transform="translate(-231.625,-171.625)"><g data-paper-data="{&quot;isPaintingLayer&quot;:true}" fill-rule="evenodd" stroke-width="0.75" stroke-miterlimit="10" stroke-dasharray="" stroke-dashoffset="0" style="mix-blend-mode: normal"><path d="M232,175v-3h3v3z" fill="#ffffff" stroke="#ff794d" stroke-linecap="round" stroke-linejoin="round"/><path d="M245,175v-3h3v3z" fill="#ffffff" stroke="#ff794d" stroke-linecap="round" stroke-linejoin="round"/><path d="M232,188v-3h3v3z" fill="#ffffff" stroke="#ff794d" stroke-linecap="round" stroke-linejoin="round"/><path d="M245,188v-3h3v3z" fill="#ffffff" stroke="#ff794d" stroke-linecap="round" stroke-linejoin="round"/><path d="M233.5,175v10" fill="none" stroke="#ff794d" stroke-linecap="square" stroke-linejoin="miter"/><path d="M246.5,185v-10" fill="none" stroke="#ff794d" stroke-linecap="square" stroke-linejoin="miter"/><path d="M245,173.5h-10" fill="none" stroke="#ff794d" stroke-linecap="square" stroke-linejoin="miter"/><path d="M245,186.5h-10" fill="none" stroke="#ff794d" stroke-linecap="square" stroke-linejoin="miter"/><g stroke="#575e75" stroke-linecap="butt" stroke-linejoin="miter"><path d="M236.5,181c-0.27614,0 -0.5,0 -0.5,0v-5c0,0 0.22386,0 0.5,0h4c0.27614,0 0.5,0 0.5,0v5c0,0 -0.22386,0 -0.5,0z" fill="#ffffff"/><path d="M239.5,184c-0.27614,0 -0.5,0 -0.5,0v-5c0,0 0.22386,0 0.5,0h4c0.27614,0 0.5,0 0.5,0v5c0,0 -0.22386,0 -0.5,0z" fill="#575e75"/></g></g></g></svg>