<svg version="1.1" xmlns="http://www.w3.org/2000/svg" xmlns:xlink="http://www.w3.org/1999/xlink" width="16.75" height="16.75" viewBox="0,0,16.75,16.75"><g transform="translate(-231.625,-171.625)"><g data-paper-data="{&quot;isPaintingLayer&quot;:true}" fill-rule="evenodd" stroke-width="0.75" stroke-miterlimit="10" stroke-dasharray="" stroke-dashoffset="0" style="mix-blend-mode: normal"><path d="M241,173.5c0.27614,0 0.5,0 0.5,0v8c0,0 -0.22386,0 -0.5,0h-7c-0.27614,0 -0.5,0 -0.5,0v-8c0,0 0.22386,0 0.5,0z" fill="#ffffff" stroke="#575e75" stroke-linecap="butt" stroke-linejoin="miter"/><path d="M246,178.5c0.27614,0 0.5,0 0.5,0v8c0,0 -0.22386,0 -0.5,0h-7c-0.27614,0 -0.5,0 -0.5,0v-8c0,0 0.22386,0 0.5,0z" fill="#575e75" stroke="#575e75" stroke-linecap="butt" stroke-linejoin="miter"/><path d="M248,185v3h-3v-3z" fill="#ffffff" stroke="#ff794d" stroke-linecap="round" stroke-linejoin="round"/><path d="M240,185v3h-3v-3z" fill="#ffffff" stroke="#ff794d" stroke-linecap="round" stroke-linejoin="round"/><path d="M248,177v3h-3v-3z" fill="#ffffff" stroke="#ff794d" stroke-linecap="round" stroke-linejoin="round"/><path d="M240,177v3h-3v-3z" fill="#ffffff" stroke="#ff794d" stroke-linecap="round" stroke-linejoin="round"/><path d="M235,180v3h-3v-3z" fill="#ffffff" stroke="#ff794d" stroke-linecap="round" stroke-linejoin="round"/><path d="M235,172v3h-3v-3z" fill="#ffffff" stroke="#ff794d" stroke-linecap="round" stroke-linejoin="round"/><path d="M243,172v3h-3v-3z" fill="#ffffff" stroke="#ff794d" stroke-linecap="round" stroke-linejoin="round"/></g></g></svg>